<?xml version="1.0" encoding="UTF-8" standalone="no"?>
<svg
   id="svg8"
   version="1.1"
   viewBox="0 0 906.51393 248.70835"
   height="940"
   width="3426.1943"
   xmlns="http://www.w3.org/2000/svg"
   xmlns:xlink= "http://www.w3.org/1999/xlink">
  <defs
     id="defs2" />
  <g
     transform="translate(26.458333,-27.124993)"
     id="layer1">
    <g
       id="g5498">
      <path
         style="opacity:1;fill:#ffffff;fill-opacity:1;fill-rule:evenodd;stroke:none;stroke-width:10.79500008;stroke-linecap:round;stroke-linejoin:round;stroke-miterlimit:4;stroke-dasharray:none;stroke-dashoffset:0;stroke-opacity:1;paint-order:fill markers stroke"
         d="M -10.583334,42.999977 H 206.37501 V 259.95832 H -10.583334 Z"
         id="rect5491" />
      <g
         id="g5489">
        <path
           id="path4504"
           transform="scale(0.26458333)"
           d="M -80.000001,122.51966 V 1022.5197 H 820.00001 V 122.51969 Z m 59.999989,59.99967 780.000012,2e-4 v 780 l -780.000012,-2e-4 z"
           style="fill:#888888;fill-opacity:1;fill-rule:evenodd;stroke:none;stroke-width:0.99999994px;stroke-linecap:butt;stroke-linejoin:miter;stroke-opacity:1" />
        <path
           id="rect5438"
           transform="scale(0.26458333)"
           d="M 1.0656765e-5,202.51969 V 942.5197 H 740.00002 V 202.51969 Z M 20.000011,222.51953 H 720.00001 v 700 H 20.000011 Z"
           style="opacity:1;fill:#888888;fill-opacity:1;fill-rule:evenodd;stroke:none;stroke-width:40.79999924;stroke-linecap:round;stroke-linejoin:round;stroke-miterlimit:4;stroke-dasharray:none;stroke-dashoffset:0;stroke-opacity:1;paint-order:fill markers stroke" />
      </g>
    </g>
    <g
       id="flowRoot4501"
       style="font-style:normal;font-variant:normal;font-weight:normal;font-stretch:normal;font-size:1066.66662598px;line-height:125%;font-family:Tipo;-inkscape-font-specification:Tipo;text-align:start;letter-spacing:0px;word-spacing:0px;writing-mode:lr-tb;text-anchor:start;fill:#cccccc;fill-opacity:1;stroke:none;stroke-width:1px;stroke-linecap:butt;stroke-linejoin:miter;stroke-opacity:1"
       transform="matrix(0.26458334,0,0,0.26458334,-56.392521,-94.108467)"
       aria-label="Grissonne">
      <path
         id="path4509"
         style="font-size:1066.66662598px;fill:#cccccc;fill-opacity:1"
         d="m 493.06666,1263.2 q -53.33333,-17.0667 -85.33333,-45.8667 -30.93333,-28.8 -57.6,-84.2667 -20.26666,-40.5333 -26.66666,-75.7333 -6.4,-35.2 -6.4,-101.33333 0,-83.19999 10.66666,-122.66666 11.73334,-40.53333 53.33333,-101.33333 38.4,-57.59999 82.13333,-84.26666 43.73334,-26.66667 125.86667,-43.73333 42.66666,-8.53333 61.86666,-9.6 19.2,-2.13333 45.86666,1.06667 23.46667,2.13333 35.2,6.4 12.8,3.2 17.06667,8.53333 5.33333,5.33333 5.33333,14.93333 0,19.2 -12.8,24.53333 -12.8,5.33334 -48,2.13334 -56.53333,-4.26667 -122.66666,12.8 -65.06666,17.06666 -95.99999,43.73333 -22.4,19.2 -53.33333,66.13333 -30.93334,46.93333 -38.4,70.4 -18.13334,60.79999 -8.53334,164.26665 6.4,58.6667 24.53334,97.0667 36.26666,75.7333 93.86666,98.1333 22.4,7.4667 36.26666,9.6 14.93334,1.0667 52.26667,-1.0667 69.33333,-4.2666 104.53333,-21.3333 35.2,-18.1333 56.53333,-59.7333 18.13333,-34.1334 13.86667,-86.4 -3.2,-53.33336 -24.53334,-68.26669 -11.73333,-7.46667 -59.73333,-7.46667 -48,0 -75.73333,11.73333 -16,7.46667 -22.4,13.86667 -6.4,5.33336 -9.6,13.86666 -2.13333,7.4667 -2.13333,23.4667 0,18.1333 -9.6,28.8 -9.6,10.6666 -23.46667,8.5333 -28.79999,-4.2667 -22.39999,-55.4667 3.2,-29.86663 18.13333,-49.06663 14.93333,-19.19999 45.86666,-34.13333 26.66667,-12.8 40.53333,-14.93333 13.86667,-3.2 60.8,-3.2 48,0 59.73333,2.13333 11.73334,2.13334 28.8,14.93334 23.46667,16 36.26667,42.66666 8.53333,17.06667 10.66666,31.99996 2.13334,13.8667 2.13334,55.4667 0,41.6 -2.13334,56.5333 -2.13333,13.8667 -11.73333,34.1334 -29.86666,60.8 -78.93333,87.4666 -49.06666,26.6667 -141.86666,32 -52.26667,2.1334 -82.13333,-7.4666 z" />
      <path
         id="path4511"
         style="font-size:1066.66662598px;fill:#cccccc;fill-opacity:1"
         d="m 880.11664,1264.2666 q -23.46666,-22.4 -12.79999,-176 5.33333,-72.5333 12.79999,-99.19996 8.53334,-26.66667 30.93334,-40.53333 34.13333,-22.4 66.13333,-23.46667 31.99999,-2.13333 52.26669,17.06667 24.5333,23.46666 5.3333,41.6 -10.6667,9.6 -25.6,6.4 -29.86666,-7.46667 -40.53333,-6.4 -10.66666,0 -22.39999,9.6 -8.53334,7.46669 -12.8,17.06669 -3.2,9.6 -6.4,35.2 -5.33334,38.4 -6.4,96 0,56.5333 3.2,83.2 3.2,18.1333 2.13333,25.6 -1.06667,6.4 -8.53333,13.8666 -19.2,18.1334 -37.33334,0 z" />
      <path
         id="path4513"
         style="font-size:1066.66662598px;fill:#cccccc;fill-opacity:1"
         d="m 1156.3667,1269.6 q -33.0667,-10.6667 -43.7334,-34.1334 -18.1333,-37.3333 -10.6666,-150.4 7.4666,-114.13329 28.8,-126.93329 9.6,-6.4 23.4666,-1.06667 13.8667,4.26667 16,14.93333 3.2,11.73334 -5.3333,65.06663 -6.4,43.7334 -7.4667,101.3334 -1.0666,57.6 4.2667,66.1333 4.2667,7.4667 22.4,13.8667 4.2667,1.0666 7.4667,3.2 3.2,1.0666 5.3333,3.2 2.1333,1.0666 3.2,3.2 2.1333,2.1333 2.1333,5.3333 1.0667,3.2 1.0667,6.4 2.1333,18.1333 -11.7333,27.7333 -13.8667,8.5334 -35.2,2.1334 z M 1129.7,873.86664 q -10.6667,-10.66666 -9.6,-35.19999 1.0667,-11.73334 2.1333,-17.06667 2.1334,-5.33333 5.3334,-9.6 4.2666,-4.26667 11.7333,-8.53333 11.7333,-6.4 17.0667,-6.4 6.4,-1.06667 17.0666,3.2 25.6,10.66666 29.8667,30.93333 4.2667,19.2 -13.8667,38.4 -14.9333,13.86666 -32,16 -16,1.06666 -27.7333,-11.73334 z" />
      <path
         id="path4515"
         style="font-size:1066.66662598px;fill:#cccccc;fill-opacity:1"
         d="m 1349.35,1268.5333 q -34.1333,-6.4 -56.5333,-19.2 -14.9334,-8.5333 -19.2,-13.8667 -3.2,-5.3333 -3.2,-17.0666 0,-36.2667 36.2666,-22.4 98.1334,40.5333 164.2667,7.4666 48,-24.5333 23.4667,-46.9333 -26.6667,-23.4667 -100.2667,-23.4667 -64,0 -92.8,-29.8666 -8.5333,-7.4667 -11.7333,-12.8 -3.2,-5.3334 -4.2667,-11.7334 -1.0667,-7.4666 -1.0667,-20.2666 0,-28.8 9.6,-50.1334 8.5334,-18.13329 32,-39.46663 24.5334,-22.39999 48,-34.13333 10.6667,-5.33333 24.5334,-7.46666 13.8666,-2.13334 27.7333,-1.06667 14.9333,0 29.8667,3.2 14.9333,3.2 27.7333,9.6 12.8,6.4 22.4,13.86667 19.2,18.13333 23.4667,28.79999 5.3333,9.6 -3.2,21.33333 -14.9334,23.4667 -50.1334,0 -19.2,-12.79999 -41.6,-18.13333 -9.6,-2.13333 -18.1333,-2.13333 -8.5333,0 -17.0667,3.2 -8.5333,3.2 -18.1333,9.6 -8.5333,6.39996 -19.2,15.99996 -19.2,19.2 -19.2,37.3334 0,17.0666 7.4667,21.3333 7.4666,4.2667 37.3333,4.2667 30.9333,0 71.4667,8.5333 41.6,8.5333 57.6,19.2 18.1333,10.6667 32,39.4667 13.8666,27.7333 10.6666,46.9333 -8.5333,43.7333 -75.7333,71.4667 -33.0667,14.9333 -62.9333,17.0666 -28.8,1.0667 -71.4667,-8.5333 z" />
      <path
         id="path4517"
         style="font-size:1066.66662598px;fill:#cccccc;fill-opacity:1"
         d="m 1695.1832,1268.5333 q -34.1333,-6.4 -56.5333,-19.2 -14.9333,-8.5333 -19.2,-13.8667 -3.2,-5.3333 -3.2,-17.0666 0,-36.2667 36.2667,-22.4 98.1333,40.5333 164.2666,7.4666 48,-24.5333 23.4667,-46.9333 -26.6667,-23.4667 -100.2667,-23.4667 -64,0 -92.8,-29.8666 -8.5333,-7.4667 -11.7333,-12.8 -3.2,-5.3334 -4.2666,-11.7334 -1.0667,-7.4666 -1.0667,-20.2666 0,-28.8 9.6,-50.1334 8.5333,-18.13329 32,-39.46663 24.5333,-22.39999 48,-34.13333 10.6666,-5.33333 24.5333,-7.46666 13.8667,-2.13334 27.7333,-1.06667 14.9334,0 29.8667,3.2 14.9333,3.2 27.7333,9.6 12.8,6.4 22.4,13.86667 19.2,18.13333 23.4667,28.79999 5.3333,9.6 -3.2,21.33333 -14.9333,23.4667 -50.1333,0 -19.2,-12.79999 -41.6,-18.13333 -9.6,-2.13333 -18.1334,-2.13333 -8.5333,0 -17.0666,3.2 -8.5334,3.2 -18.1334,9.6 -8.5333,6.39996 -19.2,15.99996 -19.2,19.2 -19.2,37.3334 0,17.0666 7.4667,21.3333 7.4667,4.2667 37.3333,4.2667 30.9334,0 71.4667,8.5333 41.6,8.5333 57.6,19.2 18.1333,10.6667 32,39.4667 13.8667,27.7333 10.6667,46.9333 -8.5334,43.7333 -75.7334,71.4667 -33.0666,14.9333 -62.9333,17.0666 -28.8,1.0667 -71.4667,-8.5333 z" />
      <path
         id="path4519"
         style="font-size:1066.66662598px;fill:#cccccc;fill-opacity:1"
         d="m 2060.2166,1267.4666 q -36.2666,-12.8 -55.4666,-28.8 -18.1334,-16 -32,-45.8666 -9.6,-18.1334 -12.8,-28.8 -3.2,-10.6667 -4.2667,-23.4667 -1.0667,-12.8 -1.0667,-44.8 0,-43.7333 2.1334,-56.5333 3.2,-13.8667 13.8666,-36.2667 26.6667,-53.33332 91.7334,-85.33332 16,-8.53334 23.4666,-10.66667 8.5334,-2.13333 18.1334,-2.13333 10.6666,0 37.3333,2.13333 54.4,6.4 81.0666,23.46667 27.7334,16 46.9334,54.39999 20.2666,38.40003 22.4,108.80003 2.1333,70.4 -14.9334,106.6666 -9.6,21.3334 -32,41.6 -21.3333,19.2 -41.6,24.5334 -19.2,6.4 -67.1999,8.5333 -48,2.1333 -75.7334,-7.4667 z M 2182.8833,1212 q 17.0666,-4.2667 30.9333,-20.2667 14.9333,-16 19.2,-35.2 3.2,-19.2 1.0667,-71.4667 -4.2667,-69.3333 -26.6667,-93.86663 -21.3333,-25.6 -78.9333,-26.66666 -26.6667,0 -37.3333,3.2 -10.6667,2.13333 -26.6667,12.8 -23.4667,17.06666 -39.4667,41.59999 -5.3333,8.5333 -8.5333,14.9333 -2.1333,5.3334 -4.2667,13.8667 -2.1333,7.4667 -3.2,16 0,8.5333 0,24.5333 -1.0666,80 42.6667,110.9334 44.8,30.9333 131.2,9.6 z" />
      <path
         id="path4521"
         style="font-size:1066.66662598px;fill:#cccccc;fill-opacity:1"
         d="m 2369.7999,1255.7333 q -6.4,-5.3333 -8.5334,-14.9333 -1.0666,-10.6667 -1.0666,-44.8 1.0666,-83.2 30.9333,-148.2667 16,-34.1333 36.2667,-51.19999 21.3333,-18.13334 70.4,-37.33334 88.5333,-35.19999 144,3.2 56.5333,38.40003 67.2,141.86663 6.4,54.4 3.2,97.0667 -3.2,42.6667 -13.8667,53.3333 -10.6667,10.6667 -25.6,5.3334 l -14.9333,-5.3334 -2.1334,-82.1333 q -3.2,-87.4667 -17.0666,-123.7333 -13.8667,-37.3334 -48,-48 -18.1334,-5.33336 -39.4667,0 -20.2667,4.2666 -59.7333,23.4666 -21.3334,9.6 -29.8667,17.0667 -7.4667,7.4667 -16,25.6 -29.8667,60.8 -29.8667,140.8 0,37.3333 -9.6,46.9333 -17.0666,14.9334 -36.2666,1.0667 z" />
      <path
         id="path4523"
         style="font-size:1066.66662598px;fill:#cccccc;fill-opacity:1"
         d="m 2792.7165,1255.7333 q -6.4,-5.3333 -8.5333,-14.9333 -1.0667,-10.6667 -1.0667,-44.8 1.0667,-83.2 30.9333,-148.2667 16,-34.1333 36.2667,-51.19999 21.3333,-18.13334 70.4,-37.33334 88.5333,-35.19999 144,3.2 56.5333,38.40003 67.2,141.86663 6.4,54.4 3.2,97.0667 -3.2,42.6667 -13.8667,53.3333 -10.6666,10.6667 -25.6,5.3334 l -14.9333,-5.3334 -2.1333,-82.1333 q -3.2,-87.4667 -17.0667,-123.7333 -13.8667,-37.3334 -48,-48 -18.1333,-5.33336 -39.4667,0 -20.2666,4.2666 -59.7333,23.4666 -21.3333,9.6 -29.8667,17.0667 -7.4666,7.4667 -16,25.6 -29.8666,60.8 -29.8666,140.8 0,37.3333 -9.6,46.9333 -17.0667,14.9334 -36.2667,1.0667 z" />
      <path
         id="path4525"
         style="font-size:1066.66662598px;fill:#cccccc;fill-opacity:1"
         d="m 3315.8999,1257.8666 q -64,-13.8666 -84.2667,-41.6 -50.1333,-65.0666 -26.6666,-162.1333 20.2666,-78.93333 70.4,-116.26666 28.8,-21.33333 49.0666,-27.73333 21.3334,-7.46667 56.5334,-6.4 38.4,0 60.8,9.6 23.4666,8.53333 43.7333,33.06667 43.7333,51.19999 30.9333,110.93332 -6.4,34.1333 -21.3333,48 -13.8667,13.8667 -45.8667,18.1333 -30.9333,3.2 -102.4,1.0667 l -92.8,-3.2 1.0667,12.8 q 0,11.7333 11.7333,33.0667 11.7334,20.2666 33.0667,28.8 22.4,7.4666 74.6667,9.6 34.1333,2.1333 49.0666,1.0666 14.9334,-2.1333 33.0667,-9.6 10.6667,-4.2666 16,-6.4 5.3333,-2.1333 9.6,-2.1333 5.3333,0 7.4667,1.0667 3.2,1.0666 8.5333,4.2666 13.8667,8.5334 11.7333,23.4667 -2.1333,13.8667 -19.2,25.6 -25.6,17.0667 -75.7333,21.3333 -50.1333,4.2667 -99.2,-6.4 z m 138.6667,-195.2 q 8.5333,-9.6 7.4666,-25.6 0,-17.0666 -9.6,-36.2666 -9.6,-20.26669 -23.4666,-30.93336 -18.1334,-12.8 -51.2,-10.66667 -32,1.06667 -56.5334,16 -20.2666,12.8 -37.3333,36.26663 -17.0667,22.4 -19.2,40.5334 -2.1333,10.6666 4.2667,12.8 7.4666,2.1333 46.9333,4.2666 122.6667,7.4667 138.6667,-6.4 z" />
    </g>
  </g>
</svg>
